<svg width="20" height="20" viewBox="0 0 20 20" fill="none" xmlns="http://www.w3.org/2000/svg">
<g id="download_24px">
<path id="icon/file/download_24px" fill-rule="evenodd" clip-rule="evenodd" d="M13 8.5H14.59C15.48 8.5 15.92 9.58 15.29 10.21L10.7 14.8C10.31 15.19 9.68 15.19 9.29 14.8L4.7 10.21C4.07 9.58 4.52 8.5 5.41 8.5H7V3.5C7 2.95 7.45 2.5 8 2.5H12C12.55 2.5 13 2.95 13 3.5V8.5ZM4 19.5C3.45 19.5 3 19.05 3 18.5C3 17.95 3.45 17.5 4 17.5H16C16.55 17.5 17 17.95 17 18.5C17 19.05 16.55 19.5 16 19.5H4Z" fill="#001196"/>
</g>
</svg>
